<svg xmlns="http://www.w3.org/2000/svg" viewBox="0 0 64 64" fill="none">
  <!-- Background -->
  <rect width="64" height="64" rx="14" fill="#1d4ed8"/>
  <!-- Dot grid / Brazil map hint (subtle) -->
  <circle cx="20" cy="16" r="1.5" fill="white" opacity="0.2"/>
  <circle cx="28" cy="16" r="1.5" fill="white" opacity="0.2"/>
  <circle cx="36" cy="16" r="1.5" fill="white" opacity="0.2"/>
  <circle cx="44" cy="16" r="1.5" fill="white" opacity="0.2"/>
  <circle cx="16" cy="24" r="1.5" fill="white" opacity="0.2"/>
  <circle cx="24" cy="24" r="1.5" fill="white" opacity="0.2"/>
  <circle cx="32" cy="24" r="1.5" fill="white" opacity="0.2"/>
  <circle cx="40" cy="24" r="1.5" fill="white" opacity="0.2"/>
  <circle cx="48" cy="24" r="1.5" fill="white" opacity="0.2"/>
  <circle cx="20" cy="48" r="1.5" fill="white" opacity="0.2"/>
  <circle cx="28" cy="52" r="1.5" fill="white" opacity="0.2"/>
  <!-- HT letters -->
  <!-- H -->
  <line x1="10" y1="22" x2="10" y2="42" stroke="white" stroke-width="4" stroke-linecap="round"/>
  <line x1="10" y1="32" x2="22" y2="32" stroke="white" stroke-width="4" stroke-linecap="round"/>
  <line x1="22" y1="22" x2="22" y2="42" stroke="white" stroke-width="4" stroke-linecap="round"/>
  <!-- T -->
  <line x1="28" y1="22" x2="42" y2="22" stroke="white" stroke-width="4" stroke-linecap="round"/>
  <line x1="35" y1="22" x2="35" y2="42" stroke="white" stroke-width="4" stroke-linecap="round"/>
  <!-- circle 10+ -->
  <circle cx="52" cy="32" r="10" stroke="white" stroke-width="2.5" fill="none" opacity="0.9"/>
  <text x="52" y="36" font-family="Arial" font-size="9" font-weight="800" fill="white" text-anchor="middle">+</text>
</svg>
